<svg width="40" height="41" viewBox="0 0 40 41" fill="none" xmlns="http://www.w3.org/2000/svg">
<path d="M28.034 0.806641H11.894C8.74031 0.810347 5.71687 2.06493 3.48706 4.29511C1.25725 6.5253 0.00317588 9.54895 0 12.7026L0 28.8426C0.00370614 31.9963 1.25829 35.0198 3.48847 37.2496C5.71866 39.4794 8.74231 40.7335 11.896 40.7366H28.036C31.1897 40.7329 34.2131 39.4784 36.4429 37.2482C38.6728 35.018 39.9268 31.9943 39.93 28.8406V12.7006C39.9263 9.54695 38.6717 6.52351 36.4415 4.2937C34.2113 2.06389 31.1877 0.809817 28.034 0.806641V0.806641ZM35.914 28.8406C35.914 29.8755 35.7102 30.9001 35.3142 31.8562C34.9182 32.8122 34.3377 33.6809 33.606 34.4126C32.8743 35.1444 32.0056 35.7248 31.0495 36.1208C30.0935 36.5168 29.0688 36.7206 28.034 36.7206H11.894C9.80444 36.7201 7.80065 35.8897 6.32329 34.4119C4.84594 32.9342 4.016 30.9302 4.016 28.8406V12.7006C4.01653 10.6111 4.84698 8.60729 6.32471 7.12993C7.80243 5.65258 9.80644 4.82264 11.896 4.82264H28.036C30.1256 4.82317 32.1294 5.65362 33.6067 7.13135C35.0841 8.60908 35.914 10.6131 35.914 12.7026V28.8426V28.8406Z" fill="#3E4348"/>
<path d="M19.9646 10.4443C17.2275 10.4486 14.6037 11.5379 12.6684 13.4735C10.7332 15.4092 9.64433 18.0332 9.64062 20.7703C9.6438 23.5082 10.7327 26.133 12.6684 28.0691C14.6042 30.0053 17.2288 31.0946 19.9666 31.0983C22.7048 31.0952 25.3299 30.006 27.2661 28.0698C29.2023 26.1336 30.2914 23.5085 30.2946 20.7703C30.2904 18.0325 29.2005 15.4081 27.264 13.4727C25.3275 11.5373 22.7025 10.449 19.9646 10.4463V10.4443ZM19.9646 27.0823C18.2911 27.0823 16.6861 26.4175 15.5028 25.2342C14.3194 24.0508 13.6546 22.4459 13.6546 20.7723C13.6546 19.0988 14.3194 17.4938 15.5028 16.3105C16.6861 15.1271 18.2911 14.4623 19.9646 14.4623C21.6381 14.4623 23.2431 15.1271 24.4265 16.3105C25.6098 17.4938 26.2746 19.0988 26.2746 20.7723C26.2746 22.4459 25.6098 24.0508 24.4265 25.2342C23.2431 26.4175 21.6381 27.0823 19.9646 27.0823Z" fill="#3E4348"/>
<path d="M30.3119 12.9968C31.6782 12.9968 32.7859 11.8892 32.7859 10.5228C32.7859 9.15648 31.6782 8.04883 30.3119 8.04883C28.9455 8.04883 27.8379 9.15648 27.8379 10.5228C27.8379 11.8892 28.9455 12.9968 30.3119 12.9968Z" fill="#3E4348"/>
</svg>
