<svg width="40" height="41" viewBox="0 0 40 41" fill="none" xmlns="http://www.w3.org/2000/svg">
<path d="M30 23.0666V30.4606H25.714V23.5606C25.714 21.8286 25.094 20.6466 23.542 20.6466C22.358 20.6466 21.652 21.4426 21.342 22.2146C21.23 22.4906 21.2 22.8746 21.2 23.2586V30.4606H16.912C16.912 30.4606 16.97 18.7766 16.912 17.5666H21.2V19.3926L21.172 19.4346H21.2V19.3946C21.77 18.5146 22.786 17.2626 25.064 17.2626C27.884 17.2626 30 19.1066 30 23.0666ZM12.426 11.3486C10.96 11.3486 10 12.3126 10 13.5766C10 14.8166 10.932 15.8066 12.37 15.8066H12.398C13.894 15.8066 14.824 14.8146 14.824 13.5766C14.796 12.3126 13.894 11.3486 12.426 11.3486ZM10.254 30.4606H14.542V17.5666H10.254V30.4606Z" fill="#3E4348"/>
<path d="M8 4.80664C6.93913 4.80664 5.92172 5.22807 5.17157 5.97821C4.42143 6.72836 4 7.74577 4 8.80664V32.8066C4 33.8675 4.42143 34.8849 5.17157 35.6351C5.92172 36.3852 6.93913 36.8066 8 36.8066H32C33.0609 36.8066 34.0783 36.3852 34.8284 35.6351C35.5786 34.8849 36 33.8675 36 32.8066V8.80664C36 7.74577 35.5786 6.72836 34.8284 5.97821C34.0783 5.22807 33.0609 4.80664 32 4.80664H8ZM8 0.806641H32C34.1217 0.806641 36.1566 1.6495 37.6569 3.14979C39.1571 4.65008 40 6.68491 40 8.80664V32.8066C40 34.9284 39.1571 36.9632 37.6569 38.4635C36.1566 39.9638 34.1217 40.8066 32 40.8066H8C5.87827 40.8066 3.84344 39.9638 2.34315 38.4635C0.842855 36.9632 0 34.9284 0 32.8066V8.80664C0 6.68491 0.842855 4.65008 2.34315 3.14979C3.84344 1.6495 5.87827 0.806641 8 0.806641V0.806641Z" fill="#3E4348"/>
</svg>
